<svg width="203.80001220703122" height="53.604965989938734" viewBox="0 0 403 106" class="looka-1j8o68f"><defs id="SvgjsDefs1417"><linearGradient id="SvgjsLinearGradient1426"><stop id="SvgjsStop1427" stop-color="#905e26" offset="0"></stop><stop id="SvgjsStop1428" stop-color="#f5ec9b" offset="0.5"></stop><stop id="SvgjsStop1429" stop-color="#905e26" offset="1"></stop></linearGradient><linearGradient id="SvgjsLinearGradient1430"><stop id="SvgjsStop1431" stop-color="#905e26" offset="0"></stop><stop id="SvgjsStop1432" stop-color="#f5ec9b" offset="0.5"></stop><stop id="SvgjsStop1433" stop-color="#905e26" offset="1"></stop></linearGradient><linearGradient id="SvgjsLinearGradient1434"><stop id="SvgjsStop1435" stop-color="#905e26" offset="0"></stop><stop id="SvgjsStop1436" stop-color="#f5ec9b" offset="0.5"></stop><stop id="SvgjsStop1437" stop-color="#905e26" offset="1"></stop></linearGradient><linearGradient id="SvgjsLinearGradient1438"><stop id="SvgjsStop1439" stop-color="#905e26" offset="0"></stop><stop id="SvgjsStop1440" stop-color="#f5ec9b" offset="0.5"></stop><stop id="SvgjsStop1441" stop-color="#905e26" offset="1"></stop></linearGradient></defs><g id="SvgjsG1418" featurekey="symbolContainer" transform="matrix(1,0,0,1,0,0)" fill="url(#SvgjsLinearGradient1426)">    <path xmlns="http://www.w3.org/2000/svg" fill-rule="nonzero" d="             M0,0             H103             V106             H0,0             z             M4,4             v98             h95             v-98             z     "></path></g><g id="SvgjsG1419" featurekey="monogramFeature-0" transform="matrix(1.8636847028918675,0,0,1.8636847028918675,10.067092851921807,-19.546324652053613)" fill="url(#SvgjsLinearGradient1430)"><path d="M3.72 60 l0 -42 l21.54 0 c5.28 0 9 1.32 11.46 3.78 c1.68 1.68 2.7 3.9 2.7 6.78 l0 0.12 c0 4.86 -2.76 7.74 -6.48 9.36 c5.1 1.68 8.34 4.56 8.34 10.26 l0 0.12 c0 7.2 -5.88 11.58 -15.9 11.58 l-21.66 0 z M15.06 34.739999999999995 l7.32 0 c3.54 0 5.52 -1.2 5.52 -3.66 l0 -0.12 c0 -2.28 -1.8 -3.6 -5.28 -3.6 l-7.56 0 l0 7.38 z M15.06 50.64 l9 0 c3.54 0 5.58 -1.38 5.58 -3.84 l0 -0.12 c0 -2.28 -1.8 -3.78 -5.7 -3.78 l-8.88 0 l0 7.74 z"></path></g><g id="SvgjsG1420" featurekey="nameFeature-0" transform="matrix(1.1589329021827002,0,0,1.1589329021827002,118.38246403218471,9.411020235448666)" fill="url(#SvgjsLinearGradient1434)"><path d="M18.066 25.371000000000002 c3.2227 0.85938 5.3906 3.0273 5.3906 6.9531 c0 4.5508 -2.9492 7.6758 -8.3203 7.6758 l-11.152 0 l0 -27.852 l8.7305 0 c5.5078 0 8.7305 2.9492 8.7305 7.5 c0 2.5586 -1.1523 4.6484 -3.3789 5.7227 z M12.734 16.094 l-4.2383 0 l0 7.832 l4.707 0 c2.5 0 3.9063 -1.7773 3.9063 -3.9844 c0 -2.1875 -1.5234 -3.8477 -4.375 -3.8477 z M14.297 35.9375 c3.1641 0 4.6289 -1.9336 4.6289 -4.1211 c0 -2.2852 -1.5039 -4.1992 -4.8047 -4.1992 l-5.625 0 l0 8.3203 l5.8008 0 z M32.85153125 23.652 c0.95703 -1.9531 3.4766 -3.4961 6.3281 -3.5156 l0 4.1016 c-4.0039 0 -6.1523 1.4648 -6.1523 5.7422 l0 10.02 l-4.5117 0 l0 -19.648 l4.3359 0 l0 3.3008 z M47.44140625 40.37109 c-3.1836 0 -6.0547 -1.5234 -6.0547 -5.3516 c0 -4.1992 3.418 -5.5078 7.5195 -6.25 l2.9688 -0.54688 c1.2891 -0.25391 1.8164 -0.83984 1.8164 -1.7773 c0 -2.4219 -1.8945 -3.2227 -3.8477 -3.2227 c-2.1289 0 -3.8672 0.9375 -4.1602 3.457 l-4.043 -0.74219 c0.68359 -4.0625 3.6133 -5.9375 8.4766 -5.9375 c3.9258 0 7.8906 1.4063 7.8906 6.9336 l0 7.6172 c0 1.8555 0.48828 2.3828 1.8555 2.3828 l0.3125 0 l0 3.0664 l-2.1289 0 c-2.207 0 -3.5352 -0.78125 -3.9844 -2.5977 l-0.21484 0 c-1.5234 2.1484 -4.043 2.9688 -6.4063 2.9688 z M48.49610625 36.8359 c3.0859 0 5.4883 -2.2852 5.4883 -5.8789 l-5.0195 1.1133 c-2.0703 0.39063 -3.2227 1.0938 -3.2227 2.5781 c0 1.543 1.2109 2.1875 2.7539 2.1875 z M66.83595625 16.602 c-1.5234 0 -2.7734 -1.25 -2.7734 -2.7539 c0 -1.5234 1.25 -2.7539 2.7734 -2.7539 c1.4844 0 2.7539 1.2305 2.7539 2.7539 c0 1.5039 -1.2695 2.7539 -2.7539 2.7539 z M64.53125625 40 l0 -19.648 l4.5117 0 l0 19.648 l-4.5117 0 z M85.8595625 19.98 c4.3945 0 7.0703 2.4219 7.0703 6.7969 l0 13.223 l-4.5313 0 l0 -12.246 c0 -2.9688 -1.7969 -4.1016 -3.8672 -4.1016 c-2.4805 0 -4.6094 1.4063 -4.6289 5.0586 l0 11.289 l-4.4922 0 l0 -19.648 l4.4922 0 l0 2.3242 c1.3086 -1.6992 3.3984 -2.6953 5.957 -2.6953 z M113.78865625 25.371000000000002 c3.2227 0.85938 5.3906 3.0273 5.3906 6.9531 c0 4.5508 -2.9492 7.6758 -8.3203 7.6758 l-11.152 0 l0 -27.852 l8.7305 0 c5.5078 0 8.7305 2.9492 8.7305 7.5 c0 2.5586 -1.1523 4.6484 -3.3789 5.7227 z M108.45665625 16.094 l-4.2383 0 l0 7.832 l4.707 0 c2.5 0 3.9063 -1.7773 3.9063 -3.9844 c0 -2.1875 -1.5234 -3.8477 -4.375 -3.8477 z M110.01965625 35.9375 c3.1641 0 4.6289 -1.9336 4.6289 -4.1211 c0 -2.2852 -1.5039 -4.1992 -4.8047 -4.1992 l-5.625 0 l0 8.3203 l5.8008 0 z M136.8556875 20.352 l4.4922 0 l0 19.648 l-4.2773 0 l-0.11719 -2.4609 c-1.3086 1.7969 -3.4375 2.832 -6.0547 2.832 c-4.375 0 -7.0703 -2.4023 -7.0703 -6.7969 l0 -13.223 l4.5313 0 l0 12.246 c0 2.9688 1.7969 4.1016 3.8867 4.1016 c2.4805 0 4.5898 -1.4063 4.6094 -5.0586 l0 -11.289 z M158.69125 19.98 c5.0781 0 9.2969 3.9258 9.2969 10.215 c0 6.3281 -4.1992 10.254 -9.2969 10.254 c-2.9102 0 -5.4102 -1.3672 -6.5625 -3.5938 l-0.11719 3.1445 l-4.2969 0 l0 -30 l4.4727 0 l0.019531 13.418 c1.1914 -2.168 3.6328 -3.4375 6.4844 -3.4375 z M157.67625 36.6406 c3.2422 0 5.8203 -2.5 5.8203 -6.4453 c0 -3.9258 -2.5781 -6.4258 -5.8203 -6.4258 s-5.8008 2.6563 -5.8008 6.4258 c0 3.7891 2.5391 6.4453 5.8008 6.4453 z M183.74984375 19.98 c5.0781 0 9.2969 3.9258 9.2969 10.215 c0 6.3281 -4.1992 10.254 -9.2969 10.254 c-2.9102 0 -5.4102 -1.3672 -6.5625 -3.5938 l-0.11719 3.1445 l-4.2969 0 l0 -30 l4.4727 0 l0.019531 13.418 c1.1914 -2.168 3.6328 -3.4375 6.4844 -3.4375 z M182.73484375 36.6406 c3.2422 0 5.8203 -2.5 5.8203 -6.4453 c0 -3.9258 -2.5781 -6.4258 -5.8203 -6.4258 s-5.8008 2.6563 -5.8008 6.4258 c0 3.7891 2.5391 6.4453 5.8008 6.4453 z M197.8320375 40 l0 -30 l4.5313 0 l0 30 l-4.5313 0 z M226.562875 29.844 l-0.058594 1.1328 l-14.941 0 c0.17578 3.9063 2.6953 5.7813 5.6836 5.7813 c2.1875 0 3.9648 -1.1133 4.8633 -3.0859 l4.1016 0.70313 c-1.3672 3.7891 -4.7656 5.9961 -8.9258 5.9961 c-6.0352 0 -10.137 -3.75 -10.137 -10.195 s4.1992 -10.215 10 -10.215 c5.4102 0 9.3945 3.1641 9.4141 9.8828 z M217.167875 23.301 c-2.7539 0 -4.7852 1.3281 -5.4102 4.3164 l10.293 0 c-0.35156 -2.9102 -2.2852 -4.3164 -4.8828 -4.3164 z M237.9101625 40.37109 c-4.2773 0 -7.5391 -1.8164 -8.2031 -5.4492 l3.8086 -1.0742 c0.52734 2.2266 2.1875 3.3008 4.3945 3.3008 c1.6211 0 3.3789 -0.58594 3.3398 -2.4805 c-0.039063 -2.2266 -2.8906 -2.5 -6.0352 -3.5547 c-2.5391 -0.82031 -5 -1.9727 -5 -5.3906 c0 -3.9453 3.2617 -5.7227 7.3242 -5.7227 c3.7109 0 6.7969 1.5039 7.4805 5.1563 l-3.5547 0.83984 c-0.52734 -2.0703 -2.0898 -2.8906 -3.9063 -2.8906 c-1.6211 0 -3.2031 0.625 -3.2031 2.2461 c0 1.875 2.3047 2.2656 4.8047 2.9297 c3.0664 0.80078 6.4258 1.9727 6.4258 6.1328 c0 4.3555 -3.6328 5.957 -7.6758 5.957 z"></path></g><g id="SvgjsG1421" featurekey="sloganFeature-0" transform="matrix(0.9868710421971579,0,0,0.9868710421971579,121.46048111299746,65.84853336678462)" fill="url(#SvgjsLinearGradient1438)"><path d="M2.92 20 l-1.36 0 l0 -14.4 l5.26 0 c3.74 0 4.7 1.86 4.7 4.02 c0 3.22 -2.86 4.02 -5.52 4.02 l-3.08 0 l0 6.36 z M2.92 12.48 l3.12 0 c2.54 0 4.12 -0.52 4.12 -2.96 c0 -1.8 -1.16 -2.76 -3.72 -2.76 l-3.52 0 l0 5.72 z M13.280000000000001 12.82 c-0.02 -4.2 2.34 -7.6 6.64 -7.6 c4.5 0 6.78 3.38 6.78 7.6 c0 4.14 -2.28 7.56 -6.72 7.56 s-6.7 -3.42 -6.7 -7.56 z M20 19.22 c3.74 0 5.34 -3.04 5.34 -6.4 c0 -4 -2.06 -6.44 -5.38 -6.44 c-3.7 0 -5.32 3.1 -5.32 6.44 c0 3.4 1.6 6.4 5.36 6.4 z M30.700000000000003 20 l-1.36 0 l0 -14.4 l5.26 0 c3.74 0 4.7 1.86 4.7 4.02 c0 3.22 -2.86 4.02 -5.52 4.02 l-3.08 0 l0 6.36 z M30.700000000000003 12.48 l3.12 0 c2.54 0 4.12 -0.52 4.12 -2.96 c0 -1.8 -1.16 -2.76 -3.72 -2.76 l-3.52 0 l0 5.72 z M49.02 20 l-1.36 0 l0 -14.4 l1.36 0 l0 14.4 z M62.38 20 l-8.28 -12.56 l-0.04 0 l0 12.56 l-1.36 0 l0 -14.4 l1.54 0 l8.32 12.58 l0.04 0 l0 -12.58 l1.36 0 l0 14.4 l-1.58 0 z M65.88 6.76 l0 -1.16 l10.48 0 l0 1.16 l-4.56 0 l0 13.24 l-1.36 0 l0 -13.24 l-4.56 0 z M77.74000000000001 12.82 c-0.02 -4.2 2.34 -7.6 6.64 -7.6 c4.5 0 6.78 3.38 6.78 7.6 c0 4.14 -2.28 7.56 -6.72 7.56 s-6.7 -3.42 -6.7 -7.56 z M84.46000000000001 19.22 c3.74 0 5.34 -3.04 5.34 -6.4 c0 -4 -2.06 -6.44 -5.38 -6.44 c-3.7 0 -5.32 3.1 -5.32 6.44 c0 3.4 1.6 6.4 5.36 6.4 z M100.86000000000001 20 l-1.36 0 l0 -14.4 l1.36 0 l0 7.46 l7.38 -7.46 l1.54 0 l-5.68 5.74 l6.68 8.66 l-1.66 0 l-6 -7.82 l-2.26 2.26 l0 5.56 z M122.40000000000002 20 l-8.28 -12.56 l-0.04 0 l0 12.56 l-1.36 0 l0 -14.4 l1.54 0 l8.32 12.58 l0.04 0 l0 -12.58 l1.36 0 l0 14.4 l-1.58 0 z M126.64000000000001 12.82 c-0.02 -4.2 2.34 -7.6 6.64 -7.6 c4.5 0 6.78 3.38 6.78 7.6 c0 4.14 -2.28 7.56 -6.72 7.56 s-6.7 -3.42 -6.7 -7.56 z M133.36 19.22 c3.74 0 5.34 -3.04 5.34 -6.4 c0 -4 -2.06 -6.44 -5.38 -6.44 c-3.7 0 -5.32 3.1 -5.32 6.44 c0 3.4 1.6 6.4 5.36 6.4 z M150.78000000000003 5.6 l3.28 12.48 l0.04 0 l3.14 -12.48 l1.4 0 l-3.78 14.4 l-1.5 0 l-3.34 -12.72 l-0.04 0 l-3.34 12.72 l-1.5 0 l-3.72 -14.4 l1.36 0 l3.1 12.48 l0.04 0 l3.34 -12.48 l1.52 0 z M169.62 20 l-9.08 0 l0 -14.4 l1.36 0 l0 13.24 l7.72 0 l0 1.16 z M181.44000000000003 20 l-9.78 0 l0 -14.4 l9.58 0 l0 1.16 l-8.22 0 l0 5.2 l7.42 0 l0 1.16 l-7.42 0 l0 5.72 l8.42 0 l0 1.16 z M188.8 20 l-4.92 0 l0 -14.4 l4.92 0 c1.6 0 3.1 0.1 4.44 1.08 c1.9 1.38 2.4 4.18 2.4 6.1 c0 1.9 -0.42 4.02 -1.74 5.46 c-1.32 1.48 -3.2 1.76 -5.1 1.76 z M185.24 6.76 l0 12.08 l3.26 0 c1.22 0 2.28 -0.08 3.38 -0.66 c1.92 -0.98 2.4 -3.44 2.4 -5.4 c0 -2.1 -0.46 -4.4 -2.48 -5.48 c-0.86 -0.46 -2.1 -0.54 -3.3 -0.54 l-3.26 0 z M209.3 13.719999999999999 l-4.86 0 l0 -1.16 l6.16 0 l0 7.44 l-1.16 0 l0 -2.46 c-1 1.72 -2.54 2.84 -5.38 2.84 c-3.64 0 -6.3 -2.54 -6.3 -7.66 c0 -4.22 2.12 -7.5 6.66 -7.5 c3.02 0 5.4 1.48 6.02 4.56 l-1.4 0 c-0.48 -2.16 -2.38 -3.4 -4.52 -3.4 c-3.8 0 -5.4 2.8 -5.4 6.88 c0 3.18 1.92 5.96 5.22 5.96 c1.56 0 3.4 -0.66 4.34 -2.52 c0.46 -0.9 0.6 -1.9 0.62 -2.98 z M223.66000000000003 20 l-9.78 0 l0 -14.4 l9.58 0 l0 1.16 l-8.22 0 l0 5.2 l7.42 0 l0 1.16 l-7.42 0 l0 5.72 l8.42 0 l0 1.16 z M227.36 16.38 l-0.28 -6.3 l0 -4.48 l1.46 0 l0 4.48 l-0.28 6.3 l-0.9 0 z M228.54000000000002 20 l-1.46 0 l0 -1.76 l1.46 0 l0 1.76 z"></path></g></svg>